<svg width="153" height="8" viewBox="0 0 153 8" fill="none" xmlns="http://www.w3.org/2000/svg">
<path d="M1 7.12C0.78 7.12 0.59 7.04333 0.43 6.89C0.27 6.73 0.19 6.52667 0.19 6.28C0.19 6.02667 0.27 5.82333 0.43 5.67C0.59 5.51 0.78 5.43 1 5.43C1.22667 5.43 1.41667 5.51 1.57 5.67C1.73 5.82333 1.81 6.02667 1.81 6.28C1.81 6.52667 1.73 6.73 1.57 6.89C1.41667 7.04333 1.22667 7.12 1 7.12ZM6.99609 7.12C6.77609 7.12 6.58609 7.04333 6.42609 6.89C6.26609 6.73 6.18609 6.52667 6.18609 6.28C6.18609 6.02667 6.26609 5.82333 6.42609 5.67C6.58609 5.51 6.77609 5.43 6.99609 5.43C7.22276 5.43 7.41276 5.51 7.56609 5.67C7.72609 5.82333 7.80609 6.02667 7.80609 6.28C7.80609 6.52667 7.72609 6.73 7.56609 6.89C7.41276 7.04333 7.22276 7.12 6.99609 7.12ZM12.9922 7.12C12.7722 7.12 12.5822 7.04333 12.4222 6.89C12.2622 6.73 12.1822 6.52667 12.1822 6.28C12.1822 6.02667 12.2622 5.82333 12.4222 5.67C12.5822 5.51 12.7722 5.43 12.9922 5.43C13.2189 5.43 13.4089 5.51 13.5622 5.67C13.7222 5.82333 13.8022 6.02667 13.8022 6.28C13.8022 6.52667 13.7222 6.73 13.5622 6.89C13.4089 7.04333 13.2189 7.12 12.9922 7.12ZM18.9883 7.12C18.7683 7.12 18.5783 7.04333 18.4183 6.89C18.2583 6.73 18.1783 6.52667 18.1783 6.28C18.1783 6.02667 18.2583 5.82333 18.4183 5.67C18.5783 5.51 18.7683 5.43 18.9883 5.43C19.2149 5.43 19.4049 5.51 19.5583 5.67C19.7183 5.82333 19.7983 6.02667 19.7983 6.28C19.7983 6.52667 19.7183 6.73 19.5583 6.89C19.4049 7.04333 19.2149 7.12 18.9883 7.12ZM24.9844 7.12C24.7644 7.12 24.5744 7.04333 24.4144 6.89C24.2544 6.73 24.1744 6.52667 24.1744 6.28C24.1744 6.02667 24.2544 5.82333 24.4144 5.67C24.5744 5.51 24.7644 5.43 24.9844 5.43C25.211 5.43 25.401 5.51 25.5544 5.67C25.7144 5.82333 25.7944 6.02667 25.7944 6.28C25.7944 6.52667 25.7144 6.73 25.5544 6.89C25.401 7.04333 25.211 7.12 24.9844 7.12ZM30.9805 7.12C30.7605 7.12 30.5705 7.04333 30.4105 6.89C30.2505 6.73 30.1705 6.52667 30.1705 6.28C30.1705 6.02667 30.2505 5.82333 30.4105 5.67C30.5705 5.51 30.7605 5.43 30.9805 5.43C31.2071 5.43 31.3971 5.51 31.5505 5.67C31.7105 5.82333 31.7905 6.02667 31.7905 6.28C31.7905 6.52667 31.7105 6.73 31.5505 6.89C31.3971 7.04333 31.2071 7.12 30.9805 7.12ZM36.9766 7.12C36.7566 7.12 36.5666 7.04333 36.4066 6.89C36.2466 6.73 36.1666 6.52667 36.1666 6.28C36.1666 6.02667 36.2466 5.82333 36.4066 5.67C36.5666 5.51 36.7566 5.43 36.9766 5.43C37.2032 5.43 37.3932 5.51 37.5466 5.67C37.7066 5.82333 37.7866 6.02667 37.7866 6.28C37.7866 6.52667 37.7066 6.73 37.5466 6.89C37.3932 7.04333 37.2032 7.12 36.9766 7.12ZM42.9727 7.12C42.7527 7.12 42.5627 7.04333 42.4027 6.89C42.2427 6.73 42.1627 6.52667 42.1627 6.28C42.1627 6.02667 42.2427 5.82333 42.4027 5.67C42.5627 5.51 42.7527 5.43 42.9727 5.43C43.1993 5.43 43.3893 5.51 43.5427 5.67C43.7027 5.82333 43.7827 6.02667 43.7827 6.28C43.7827 6.52667 43.7027 6.73 43.5427 6.89C43.3893 7.04333 43.1993 7.12 42.9727 7.12ZM48.9688 7.12C48.7488 7.12 48.5588 7.04333 48.3988 6.89C48.2388 6.73 48.1588 6.52667 48.1588 6.28C48.1588 6.02667 48.2388 5.82333 48.3988 5.67C48.5588 5.51 48.7488 5.43 48.9688 5.43C49.1954 5.43 49.3854 5.51 49.5388 5.67C49.6988 5.82333 49.7788 6.02667 49.7788 6.28C49.7788 6.52667 49.6988 6.73 49.5388 6.89C49.3854 7.04333 49.1954 7.12 48.9688 7.12ZM54.9648 7.12C54.7448 7.12 54.5548 7.04333 54.3948 6.89C54.2348 6.73 54.1548 6.52667 54.1548 6.28C54.1548 6.02667 54.2348 5.82333 54.3948 5.67C54.5548 5.51 54.7448 5.43 54.9648 5.43C55.1915 5.43 55.3815 5.51 55.5348 5.67C55.6948 5.82333 55.7748 6.02667 55.7748 6.28C55.7748 6.52667 55.6948 6.73 55.5348 6.89C55.3815 7.04333 55.1915 7.12 54.9648 7.12ZM60.9609 7.12C60.7409 7.12 60.5509 7.04333 60.3909 6.89C60.2309 6.73 60.1509 6.52667 60.1509 6.28C60.1509 6.02667 60.2309 5.82333 60.3909 5.67C60.5509 5.51 60.7409 5.43 60.9609 5.43C61.1876 5.43 61.3776 5.51 61.5309 5.67C61.6909 5.82333 61.7709 6.02667 61.7709 6.28C61.7709 6.52667 61.6909 6.73 61.5309 6.89C61.3776 7.04333 61.1876 7.12 60.9609 7.12ZM66.957 7.12C66.737 7.12 66.547 7.04333 66.387 6.89C66.227 6.73 66.147 6.52667 66.147 6.28C66.147 6.02667 66.227 5.82333 66.387 5.67C66.547 5.51 66.737 5.43 66.957 5.43C67.1837 5.43 67.3737 5.51 67.527 5.67C67.687 5.82333 67.767 6.02667 67.767 6.28C67.767 6.52667 67.687 6.73 67.527 6.89C67.3737 7.04333 67.1837 7.12 66.957 7.12ZM72.9531 7.12C72.7331 7.12 72.5431 7.04333 72.3831 6.89C72.2231 6.73 72.1431 6.52667 72.1431 6.28C72.1431 6.02667 72.2231 5.82333 72.3831 5.67C72.5431 5.51 72.7331 5.43 72.9531 5.43C73.1798 5.43 73.3698 5.51 73.5231 5.67C73.6831 5.82333 73.7631 6.02667 73.7631 6.28C73.7631 6.52667 73.6831 6.73 73.5231 6.89C73.3698 7.04333 73.1798 7.12 72.9531 7.12ZM78.9492 7.12C78.7292 7.12 78.5392 7.04333 78.3792 6.89C78.2192 6.73 78.1392 6.52667 78.1392 6.28C78.1392 6.02667 78.2192 5.82333 78.3792 5.67C78.5392 5.51 78.7292 5.43 78.9492 5.43C79.1759 5.43 79.3659 5.51 79.5192 5.67C79.6792 5.82333 79.7592 6.02667 79.7592 6.28C79.7592 6.52667 79.6792 6.73 79.5192 6.89C79.3659 7.04333 79.1759 7.12 78.9492 7.12ZM84.9453 7.12C84.7253 7.12 84.5353 7.04333 84.3753 6.89C84.2153 6.73 84.1353 6.52667 84.1353 6.28C84.1353 6.02667 84.2153 5.82333 84.3753 5.67C84.5353 5.51 84.7253 5.43 84.9453 5.43C85.172 5.43 85.362 5.51 85.5153 5.67C85.6753 5.82333 85.7553 6.02667 85.7553 6.28C85.7553 6.52667 85.6753 6.73 85.5153 6.89C85.362 7.04333 85.172 7.12 84.9453 7.12ZM90.9414 7.12C90.7214 7.12 90.5314 7.04333 90.3714 6.89C90.2114 6.73 90.1314 6.52667 90.1314 6.28C90.1314 6.02667 90.2114 5.82333 90.3714 5.67C90.5314 5.51 90.7214 5.43 90.9414 5.43C91.1681 5.43 91.3581 5.51 91.5114 5.67C91.6714 5.82333 91.7514 6.02667 91.7514 6.28C91.7514 6.52667 91.6714 6.73 91.5114 6.89C91.3581 7.04333 91.1681 7.12 90.9414 7.12ZM96.9375 7.12C96.7175 7.12 96.5275 7.04333 96.3675 6.89C96.2075 6.73 96.1275 6.52667 96.1275 6.28C96.1275 6.02667 96.2075 5.82333 96.3675 5.67C96.5275 5.51 96.7175 5.43 96.9375 5.43C97.1642 5.43 97.3542 5.51 97.5075 5.67C97.6675 5.82333 97.7475 6.02667 97.7475 6.28C97.7475 6.52667 97.6675 6.73 97.5075 6.89C97.3542 7.04333 97.1642 7.12 96.9375 7.12ZM102.934 7.12C102.714 7.12 102.524 7.04333 102.364 6.89C102.204 6.73 102.124 6.52667 102.124 6.28C102.124 6.02667 102.204 5.82333 102.364 5.67C102.524 5.51 102.714 5.43 102.934 5.43C103.16 5.43 103.35 5.51 103.504 5.67C103.664 5.82333 103.744 6.02667 103.744 6.28C103.744 6.52667 103.664 6.73 103.504 6.89C103.35 7.04333 103.16 7.12 102.934 7.12ZM108.93 7.12C108.71 7.12 108.52 7.04333 108.36 6.89C108.2 6.73 108.12 6.52667 108.12 6.28C108.12 6.02667 108.2 5.82333 108.36 5.67C108.52 5.51 108.71 5.43 108.93 5.43C109.156 5.43 109.346 5.51 109.5 5.67C109.66 5.82333 109.74 6.02667 109.74 6.28C109.74 6.52667 109.66 6.73 109.5 6.89C109.346 7.04333 109.156 7.12 108.93 7.12ZM114.926 7.12C114.706 7.12 114.516 7.04333 114.356 6.89C114.196 6.73 114.116 6.52667 114.116 6.28C114.116 6.02667 114.196 5.82333 114.356 5.67C114.516 5.51 114.706 5.43 114.926 5.43C115.152 5.43 115.342 5.51 115.496 5.67C115.656 5.82333 115.736 6.02667 115.736 6.28C115.736 6.52667 115.656 6.73 115.496 6.89C115.342 7.04333 115.152 7.12 114.926 7.12ZM120.922 7.12C120.702 7.12 120.512 7.04333 120.352 6.89C120.192 6.73 120.112 6.52667 120.112 6.28C120.112 6.02667 120.192 5.82333 120.352 5.67C120.512 5.51 120.702 5.43 120.922 5.43C121.149 5.43 121.339 5.51 121.492 5.67C121.652 5.82333 121.732 6.02667 121.732 6.28C121.732 6.52667 121.652 6.73 121.492 6.89C121.339 7.04333 121.149 7.12 120.922 7.12ZM126.918 7.12C126.698 7.12 126.508 7.04333 126.348 6.89C126.188 6.73 126.108 6.52667 126.108 6.28C126.108 6.02667 126.188 5.82333 126.348 5.67C126.508 5.51 126.698 5.43 126.918 5.43C127.145 5.43 127.335 5.51 127.488 5.67C127.648 5.82333 127.728 6.02667 127.728 6.28C127.728 6.52667 127.648 6.73 127.488 6.89C127.335 7.04333 127.145 7.12 126.918 7.12ZM132.914 7.12C132.694 7.12 132.504 7.04333 132.344 6.89C132.184 6.73 132.104 6.52667 132.104 6.28C132.104 6.02667 132.184 5.82333 132.344 5.67C132.504 5.51 132.694 5.43 132.914 5.43C133.141 5.43 133.331 5.51 133.484 5.67C133.644 5.82333 133.724 6.02667 133.724 6.28C133.724 6.52667 133.644 6.73 133.484 6.89C133.331 7.04333 133.141 7.12 132.914 7.12ZM138.91 7.12C138.69 7.12 138.5 7.04333 138.34 6.89C138.18 6.73 138.1 6.52667 138.1 6.28C138.1 6.02667 138.18 5.82333 138.34 5.67C138.5 5.51 138.69 5.43 138.91 5.43C139.137 5.43 139.327 5.51 139.48 5.67C139.64 5.82333 139.72 6.02667 139.72 6.28C139.72 6.52667 139.64 6.73 139.48 6.89C139.327 7.04333 139.137 7.12 138.91 7.12ZM144.906 7.12C144.686 7.12 144.496 7.04333 144.336 6.89C144.176 6.73 144.096 6.52667 144.096 6.28C144.096 6.02667 144.176 5.82333 144.336 5.67C144.496 5.51 144.686 5.43 144.906 5.43C145.133 5.43 145.323 5.51 145.476 5.67C145.636 5.82333 145.716 6.02667 145.716 6.28C145.716 6.52667 145.636 6.73 145.476 6.89C145.323 7.04333 145.133 7.12 144.906 7.12ZM148.972 6.52V5.73L151.982 3.7V3.66L148.972 1.63V0.839999L152.702 3.37V3.99L148.972 6.52Z" fill="#502A8E"/>
</svg>
