<svg width="21" height="31" viewBox="0 0 21 31" fill="none" xmlns="http://www.w3.org/2000/svg">
<rect x="0.5" y="0.5" width="16.4794" height="28.8588" stroke="black"/>
<path d="M3.03051 12.4829V3.75564H5.97938C6.66119 3.75564 7.22085 3.87211 7.65835 4.10507C8.09585 4.33518 8.41972 4.65194 8.62994 5.05535C8.84017 5.45876 8.94529 5.91757 8.94529 6.43177C8.94529 6.94598 8.84017 7.40194 8.62994 7.79967C8.41972 8.1974 8.09727 8.5099 7.66261 8.73717C7.22796 8.9616 6.67256 9.07382 5.99642 9.07382H3.61006V8.11927H5.96233C6.42824 8.11927 6.80324 8.05109 7.08733 7.91473C7.37426 7.77836 7.58165 7.58518 7.70949 7.33518C7.84017 7.08234 7.90551 6.78121 7.90551 6.43177C7.90551 6.08234 7.84017 5.77694 7.70949 5.51558C7.57881 5.25422 7.37 5.05251 7.08307 4.91047C6.79614 4.76558 6.41688 4.69314 5.94528 4.69314H4.08733V12.4829H3.03051ZM7.13847 8.56246L9.28619 12.4829H8.05892L5.94528 8.56246H7.13847ZM11.3029 12.5511C11.0927 12.5511 10.9123 12.4758 10.7617 12.3252C10.6111 12.1747 10.5358 11.9943 10.5358 11.784C10.5358 11.5738 10.6111 11.3934 10.7617 11.2429C10.9123 11.0923 11.0927 11.017 11.3029 11.017C11.5131 11.017 11.6935 11.0923 11.8441 11.2429C11.9946 11.3934 12.0699 11.5738 12.0699 11.784C12.0699 11.9233 12.0344 12.0511 11.9634 12.1676C11.8952 12.284 11.8029 12.3778 11.6864 12.4488C11.5728 12.517 11.4449 12.5511 11.3029 12.5511ZM3.03051 18.7556H4.29188L7.25779 26H7.36006L10.326 18.7556H11.5873V27.4829H10.5987V20.8522H10.5135L7.78619 27.4829H6.83165L4.10438 20.8522H4.01915V27.4829H3.03051V18.7556ZM14.3029 27.5511C14.0927 27.5511 13.9123 27.4758 13.7617 27.3252C13.6111 27.1747 13.5358 26.9943 13.5358 26.784C13.5358 26.5738 13.6111 26.3934 13.7617 26.2429C13.9123 26.0923 14.0927 26.017 14.3029 26.017C14.5131 26.017 14.6935 26.0923 14.8441 26.2429C14.9946 26.3934 15.0699 26.5738 15.0699 26.784C15.0699 26.9233 15.0344 27.0511 14.9634 27.1676C14.8952 27.284 14.8029 27.3778 14.6864 27.4488C14.5728 27.517 14.4449 27.5511 14.3029 27.5511Z" fill="black"/>
</svg>
