<svg width="61" height="50" viewBox="0 0 61 50" fill="none" xmlns="http://www.w3.org/2000/svg">
<path d="M61 0V20.7221H49.3361C49.3361 23.6 49.7402 26.2034 50.5491 28.5324C51.3579 30.8608 52.555 33.0848 54.1416 35.2039C55.727 37.3235 58.0139 39.0897 61 40.5024V50C55.2766 47.9069 50.6112 45.1598 47.0028 41.7583C43.3951 38.3569 40.7198 34.6284 38.9784 30.573C37.2364 26.5176 36.3654 20.6172 36.3654 12.8726V0H61ZM24.6346 0V20.7221H12.9707C12.9707 23.6 13.3748 26.2034 14.1837 28.5324C14.9925 30.8608 16.1896 33.0848 17.7762 35.2039C19.3616 37.3235 21.6485 39.0897 24.6346 40.5024V50C18.9733 47.9069 14.3233 45.1598 10.6844 41.7583C7.04433 38.3569 4.35446 34.6284 2.61303 30.573C0.871009 26.5176 0 20.6172 0 12.8726V0H24.6346Z" fill="#CEB1F5"/>
</svg>
