<svg width="97" height="78" viewBox="0 0 97 78" fill="none" xmlns="http://www.w3.org/2000/svg">
<path d="M97 78V45.6736H78.4525C78.4525 41.184 79.0951 37.1226 80.3813 33.4895C81.6675 29.8572 83.5711 26.3877 86.094 23.0819C88.6151 19.7753 92.2517 17.0201 97 14.8162V0C87.8988 3.26529 80.4802 7.55071 74.7422 12.857C69.0052 18.1633 64.7512 23.9796 61.9821 30.3061C59.212 36.6325 57.8269 45.8372 57.8269 57.9188V78H97ZM39.1731 78V45.6736H20.6256C20.6256 41.184 21.2682 37.1226 22.5544 33.4895C23.8405 29.8572 25.7442 26.3877 28.2671 23.0819C30.7882 19.7753 34.4247 17.0201 39.1731 14.8162V0C30.1707 3.26529 22.7763 7.55071 16.9899 12.857C11.2016 18.1633 6.92431 23.9796 4.15514 30.3061C1.38505 36.6325 0 45.8372 0 57.9188V78H39.1731Z" fill="#BA96EC"/>
</svg>
